<svg width="24" height="18" viewBox="0 0 24 18" fill="none" xmlns="http://www.w3.org/2000/svg">
<path d="M0.983913 18H23.0161C23.2901 18 23.5226 17.8617 23.7135 17.5852C23.9045 17.2966 24 16.9479 24 16.5391C24 16.1543 23.9045 15.8236 23.7135 15.5471C23.5226 15.2705 23.2901 15.1323 23.0161 15.1323H0.983913C0.709912 15.1323 0.477426 15.2705 0.286456 15.5471C0.0954852 15.8236 0 16.1543 0 16.5391C0 16.9479 0.0954852 17.2966 0.286456 17.5852C0.477426 17.8617 0.709912 18 0.983913 18ZM0.983913 10.4248H23.0161C23.2901 10.4248 23.5226 10.2866 23.7135 10.01C23.9045 9.73347 24 9.39679 24 9C24 8.59118 23.9045 8.2485 23.7135 7.97194C23.5226 7.69539 23.2901 7.55711 23.0161 7.55711H0.983913C0.709912 7.55711 0.477426 7.69539 0.286456 7.97194C0.0954852 8.2485 0 8.59118 0 9C0 9.39679 0.0954852 9.73347 0.286456 10.01C0.477426 10.2866 0.709912 10.4248 0.983913 10.4248ZM0.983913 2.8497H23.0161C23.2901 2.8497 23.5226 2.71142 23.7135 2.43487C23.9045 2.14629 24 1.80962 24 1.42485C24 1.02806 23.9045 0.691383 23.7135 0.41483C23.5226 0.138277 23.2901 0 23.0161 0H0.983913C0.709912 0 0.477426 0.144289 0.286456 0.432866C0.0954852 0.709419 0 1.04008 0 1.42485C0 1.80962 0.0954852 2.14629 0.286456 2.43487C0.477426 2.71142 0.709912 2.8497 0.983913 2.8497Z" fill="black"/>
</svg>
